# Blender v2.92.0 OBJ File: 'pinapple.blend'
# www.blender.org
mtllib ghektainapple.mtl
o Cylinder
v -0.000000 0.252152 -0.646718
v 0.112614 1.361318 -0.170000
v 0.214205 1.236289 -0.323359
v 0.294828 1.041552 -0.445066
v 0.346591 0.796169 -0.523206
v 0.364427 0.524161 -0.550131
v 0.346591 0.252152 -0.523206
v 0.294828 0.006769 -0.445066
v 0.182214 1.361318 -0.064934
v 0.346591 1.236289 -0.123512
v 0.477041 1.041552 -0.170000
v 0.560795 0.796169 -0.199847
v 0.589655 0.524161 -0.210131
v 0.560795 0.252152 -0.199847
v 0.477041 0.006769 -0.170000
v 0.182214 1.361318 0.064935
v 0.346591 1.236289 0.123513
v 0.477041 1.041552 0.170000
v 0.560795 0.796169 0.199847
v 0.589655 0.524161 0.210132
v 0.560795 0.252152 0.199847
v 0.477041 0.006769 0.170000
v 0.112614 1.361318 0.170000
v 0.214205 1.236289 0.323360
v 0.294828 1.041552 0.445066
v 0.346591 0.796169 0.523207
v 0.364427 0.524161 0.550132
v 0.346591 0.252152 0.523207
v 0.294828 0.006769 0.445066
v 0.000000 1.361318 0.210132
v 0.000000 1.236289 0.399694
v -0.000000 1.041552 0.550132
v 0.000000 0.796169 0.646719
v 0.000000 0.524161 0.680000
v -0.000000 0.252152 0.646719
v -0.000000 0.006769 0.550132
v -0.000000 1.404399 0.000000
v -0.112614 1.361318 0.170000
v -0.214205 1.236289 0.323360
v -0.294828 1.041552 0.445066
v -0.346591 0.796169 0.523207
v -0.364427 0.524161 0.550132
v -0.346591 0.252152 0.523207
v -0.294828 0.006769 0.445066
v -0.182214 1.361318 0.064935
v -0.346591 1.236289 0.123513
v -0.477041 1.041552 0.170000
v -0.560795 0.796169 0.199847
v -0.589655 0.524161 0.210132
v -0.560796 0.252152 0.199847
v -0.477041 0.006769 0.170000
v -0.182214 1.361318 -0.064934
v -0.346591 1.236289 -0.123512
v -0.477041 1.041552 -0.170000
v -0.560795 0.796169 -0.199847
v -0.589655 0.524161 -0.210131
v -0.560796 0.252152 -0.199847
v -0.477041 0.006769 -0.170000
v -0.112614 1.361318 -0.170000
v -0.214205 1.236289 -0.323359
v -0.294828 1.041552 -0.445066
v -0.346591 0.796169 -0.523206
v -0.364427 0.524161 -0.550131
v -0.346591 0.252152 -0.523206
v -0.294828 0.006769 -0.445066
v -0.000000 1.361318 -0.210131
v -0.000000 1.236289 -0.399694
v -0.000000 1.041552 -0.550132
v -0.000000 0.796169 -0.646718
v -0.000000 0.524161 -0.680000
v -0.000000 0.006769 -0.550132
v 0.052913 2.507810 -0.593939
v 0.052913 2.075097 -0.490734
v 0.041429 1.575003 -0.138438
v 0.279592 2.518042 -0.573159
v 0.373485 2.089566 -0.461347
v 0.268108 1.585234 -0.117658
v 0.279592 2.538505 -0.531600
v 0.373485 2.118506 -0.402573
v 0.268108 1.605698 -0.076099
v 0.052913 2.548737 -0.510820
v 0.052913 2.132976 -0.373186
v 0.041429 1.615930 -0.055319
v -0.000000 1.354774 0.021637
v 0.052913 2.768966 -0.670894
v -0.173765 2.538505 -0.531600
v -0.267658 2.118506 -0.402573
v -0.185249 1.605698 -0.076099
v -0.173765 2.518042 -0.573159
v -0.267658 2.089566 -0.461347
v -0.185249 1.585234 -0.117658
vt 0.698020 0.508201
vt 0.633340 0.503604
vt 0.635295 0.417043
vt 0.700317 0.406442
vt 0.070754 0.743534
vt 0.104343 0.793216
vt 0.050722 0.770448
vt 0.772443 0.509761
vt 0.774859 0.402765
vt 0.038104 0.696951
vt 0.000000 0.748145
vt 0.849325 0.508130
vt 0.851622 0.406371
vt 0.584736 0.496419
vt 0.586156 0.433529
vt 0.921139 0.503469
vt 0.923094 0.416907
vt 0.801480 0.688874
vt 0.871700 0.706268
vt 0.876379 0.783476
vt 0.806979 0.779638
vt 0.050722 0.805722
vt 0.724786 0.686274
vt 0.730568 0.781708
vt 0.000000 0.815240
vt 0.649126 0.698720
vt 0.654625 0.789483
vt 0.928574 0.736752
vt 0.931973 0.792846
vt 0.581906 0.724996
vt 0.586584 0.802203
vt 0.661861 0.901420
vt 0.592739 0.897423
vt 0.882534 0.878695
vt 0.814215 0.891575
vt 0.070754 0.835881
vt 0.738177 0.899405
vt 0.038104 0.872606
vt 0.936445 0.862028
vt 0.940282 0.917870
vt 0.887815 0.955556
vt 0.668069 0.991776
vt 0.598020 0.974284
vt 0.820423 0.981930
vt 0.103168 0.849407
vt 0.744704 0.994411
vt 0.099759 0.898334
vt 0.248524 0.721518
vt 0.321793 0.713177
vt 0.314002 0.808225
vt 0.241114 0.811915
vt 0.469872 0.733021
vt 0.530187 0.759263
vt 0.525608 0.815131
vt 0.463569 0.809917
vt 0.185430 0.741347
vt 0.179127 0.818243
vt 0.398064 0.717140
vt 0.390655 0.807537
vt 0.135581 0.841132
vt 0.161413 0.882594
vt 0.397218 0.909070
vt 0.320903 0.914983
vt 0.155614 0.814218
vt 0.199517 0.831401
vt 0.247678 0.913447
vt 0.529664 0.877882
vt 0.469152 0.896285
vt 0.184710 0.904612
vt 0.155614 0.778945
vt 0.415247 0.982956
vt 0.339860 0.992672
vt 0.199517 0.764306
vt 0.265707 0.987334
vt 0.540807 0.923547
vt 0.484489 0.959137
vt 0.200047 0.967464
vt 0.315659 0.477650
vt 0.335623 0.408785
vt 0.415171 0.408785
vt 0.409173 0.477650
vt 0.135581 0.748785
vt 0.308780 0.553988
vt 0.407107 0.553988
vt 0.161413 0.706939
vt 0.315659 0.630325
vt 0.409173 0.630325
vt 0.366717 0.354134
vt 0.424513 0.354134
vt 0.335623 0.699190
vt 0.415171 0.699190
vt 0.518027 0.630325
vt 0.507767 0.699190
vt 0.507767 0.408785
vt 0.518027 0.477650
vt 0.103168 0.735259
vt 0.521562 0.553988
vt 0.099759 0.681212
vt 0.491788 0.354134
vt 0.856151 0.598050
vt 0.779621 0.604308
vt 0.094449 0.636364
vt 0.009589 0.658027
vt 0.178137 0.345500
vt 0.252220 0.401050
vt 0.284250 0.490932
vt 0.261994 0.580814
vt 0.193952 0.636364
vt 0.106114 0.636364
vt 0.032031 0.580814
vt 0.000000 0.490932
vt 0.022256 0.401050
vt 0.090299 0.345500
vt 0.926946 0.579959
vt 0.704846 0.598121
vt 0.639147 0.580094
vt 0.113127 0.106581
vt 0.180579 0.109991
vt 0.184465 0.173648
vt 0.332683 0.095437
vt 0.456817 0.089798
vt 0.460702 0.153454
vt 0.338178 0.185461
vt 0.532273 0.085689
vt 0.720343 0.230576
vt 0.598304 0.206206
vt 0.598241 0.193205
vt 0.720253 0.212190
vt 0.889606 0.205736
vt 0.889542 0.192736
vt 0.522549 0.200077
vt 0.964352 0.198869
vt 0.955919 0.113545
vt 0.881444 0.185760
vt 0.879780 0.124024
vt 0.721981 0.205132
vt 0.599209 0.177303
vt 0.597544 0.115566
vt 0.719627 0.117824
vt 0.527927 0.110465
vt 0.881379 0.060233
vt 0.599144 0.051775
vt 0.721889 0.027610
vt 0.469562 0.183938
vt 0.405985 0.214776
vt 0.407836 0.203636
vt 0.248814 0.207325
vt 0.122741 0.208086
vt 0.124592 0.196946
vt 0.251432 0.191571
vt 0.037998 0.168235
vt 0.180861 0.048302
vt 0.333081 0.008196
vt 0.457098 0.028109
vn 0.0000 0.2396 -0.9709
vn 0.0000 0.4812 -0.8766
vn 0.5441 0.4705 -0.6947
vn 0.5983 0.2330 -0.7666
vn 0.0000 0.9091 -0.4166
vn 0.0000 1.0000 0.0000
vn 0.2660 0.9050 -0.3320
vn 0.0000 0.0000 -1.0000
vn 0.6149 0.0000 -0.7886
vn 0.0000 0.7157 -0.6984
vn 0.4387 0.7059 -0.5561
vn 0.0000 -0.2396 -0.9709
vn 0.5983 -0.2330 -0.7666
vn 0.0000 -0.7720 -0.6356
vn 0.3954 -0.7714 -0.4987
vn 0.8531 0.4540 -0.2569
vn 0.9332 0.2230 -0.2818
vn 0.4208 0.8986 -0.1240
vn 0.9572 0.0000 -0.2893
vn 0.6930 0.6905 -0.2073
vn 0.9332 -0.2230 -0.2818
vn 0.6111 -0.7704 -0.1818
vn 0.9332 -0.2230 0.2818
vn 0.6111 -0.7704 0.1818
vn 0.8531 0.4540 0.2569
vn 0.9332 0.2230 0.2818
vn 0.4208 0.8986 0.1240
vn 0.9572 0.0000 0.2893
vn 0.6930 0.6905 0.2073
vn 0.4387 0.7059 0.5561
vn 0.5441 0.4705 0.6947
vn 0.5983 -0.2330 0.7666
vn 0.3954 -0.7714 0.4987
vn 0.5983 0.2330 0.7666
vn 0.2660 0.9050 0.3320
vn 0.6149 0.0000 0.7886
vn 0.0000 0.0000 1.0000
vn 0.0000 -0.2396 0.9709
vn 0.0000 0.7157 0.6984
vn 0.0000 0.4812 0.8766
vn 0.0000 -0.7720 0.6356
vn 0.0000 0.2396 0.9709
vn 0.0000 0.9091 0.4166
vn -0.5983 0.2330 0.7666
vn -0.6149 0.0000 0.7886
vn -0.2660 0.9050 0.3320
vn -0.4387 0.7059 0.5561
vn -0.5983 -0.2330 0.7666
vn -0.5441 0.4705 0.6947
vn -0.3954 -0.7714 0.4987
vn -0.4208 0.8986 0.1240
vn -0.9332 0.2230 0.2818
vn -0.9572 0.0000 0.2893
vn -0.6930 0.6905 0.2073
vn -0.9332 -0.2230 0.2818
vn -0.8531 0.4540 0.2569
vn -0.6111 -0.7704 0.1818
vn -0.8531 0.4540 -0.2569
vn -0.9332 0.2230 -0.2818
vn -0.4208 0.8986 -0.1240
vn -0.9572 0.0000 -0.2893
vn -0.6930 0.6905 -0.2073
vn -0.9332 -0.2230 -0.2818
vn -0.6111 -0.7704 -0.1818
vn -0.5983 -0.2330 -0.7666
vn -0.3954 -0.7714 -0.4987
vn -0.5441 0.4705 -0.6947
vn -0.5983 0.2330 -0.7666
vn -0.2660 0.9050 -0.3320
vn -0.6149 0.0000 -0.7886
vn -0.4387 0.7059 -0.5561
vn -0.0870 -0.8937 0.4400
vn 0.0041 -0.5824 -0.8128
vn 0.7016 -0.6283 -0.3360
vn 0.0006 -0.4117 -0.9113
vn 0.0000 -0.2571 -0.9664
vn 0.7018 0.1234 -0.7016
vn 0.7425 -0.2675 -0.6141
vn 0.0000 0.8971 -0.4417
vn 0.6964 0.5515 0.4591
vn 0.8012 0.2682 0.5349
vn 0.6980 -0.0149 0.7159
vn 0.0042 0.4064 0.9137
vn 0.0000 0.4564 0.8898
vn 0.0006 0.4216 0.9067
vn -0.7188 0.0596 0.6926
vn -0.6964 0.5515 0.4591
vn -0.7983 0.2836 0.5312
vn -0.7269 -0.5682 -0.3856
vn -0.7018 0.1234 -0.7016
vn -0.7389 -0.2578 -0.6225
usemtl Material.001
s 1
f 69/1/1 68/2/2 4/3/3 5/4/4
f 66/5/5 37/6/6 2/7/7
f 70/8/8 69/1/1 5/4/4 6/9/9
f 67/10/10 66/5/5 2/7/7 3/11/11
f 1/12/12 70/8/8 6/9/9 7/13/13
f 68/2/2 67/14/10 3/15/11 4/3/3
f 71/16/14 1/12/12 7/13/13 8/17/15
f 5/18/4 4/19/3 11/20/16 12/21/17
f 2/7/7 37/6/6 9/22/18
f 6/23/9 5/18/4 12/21/17 13/24/19
f 3/11/11 2/7/7 9/22/18 10/25/20
f 7/26/13 6/23/9 13/24/19 14/27/21
f 4/19/3 3/28/11 10/29/20 11/20/16
f 8/30/15 7/26/13 14/27/21 15/31/22
f 15/31/22 14/27/21 21/32/23 22/33/24
f 12/21/17 11/20/16 18/34/25 19/35/26
f 9/22/18 37/6/6 16/36/27
f 13/24/19 12/21/17 19/35/26 20/37/28
f 10/25/20 9/22/18 16/36/27 17/38/29
f 14/27/21 13/24/19 20/37/28 21/32/23
f 11/20/16 10/29/20 17/39/29 18/34/25
f 18/34/25 17/39/29 24/40/30 25/41/31
f 22/33/24 21/32/23 28/42/32 29/43/33
f 19/35/26 18/34/25 25/41/31 26/44/34
f 16/36/27 37/6/6 23/45/35
f 20/37/28 19/35/26 26/44/34 27/46/36
f 17/38/29 16/36/27 23/45/35 24/47/30
f 21/32/23 20/37/28 27/46/36 28/42/32
f 28/48/32 27/49/36 34/50/37 35/51/38
f 25/52/31 24/53/30 31/54/39 32/55/40
f 29/56/33 28/48/32 35/51/38 36/57/41
f 26/58/34 25/52/31 32/55/40 33/59/42
f 23/45/35 37/6/6 30/60/43
f 27/49/36 26/58/34 33/59/42 34/50/37
f 24/47/30 23/45/35 30/60/43 31/61/39
f 34/50/37 33/59/42 41/62/44 42/63/45
f 31/61/39 30/60/43 38/64/46 39/65/47
f 35/51/38 34/50/37 42/63/45 43/66/48
f 32/55/40 31/54/39 39/67/47 40/68/49
f 36/57/41 35/51/38 43/66/48 44/69/50
f 33/59/42 32/55/40 40/68/49 41/62/44
f 30/60/43 37/6/6 38/64/46
f 38/64/46 37/6/6 45/70/51
f 42/63/45 41/62/44 48/71/52 49/72/53
f 39/65/47 38/64/46 45/70/51 46/73/54
f 43/66/48 42/63/45 49/72/53 50/74/55
f 40/68/49 39/67/47 46/75/54 47/76/56
f 44/69/50 43/66/48 50/74/55 51/77/57
f 41/62/44 40/68/49 47/76/56 48/71/52
f 48/78/52 47/79/56 54/80/58 55/81/59
f 45/70/51 37/6/6 52/82/60
f 49/83/53 48/78/52 55/81/59 56/84/61
f 46/73/54 45/70/51 52/82/60 53/85/62
f 50/86/55 49/83/53 56/84/61 57/87/63
f 47/79/56 46/88/54 53/89/62 54/80/58
f 51/90/57 50/86/55 57/87/63 58/91/64
f 58/91/64 57/87/63 64/92/65 65/93/66
f 55/81/59 54/80/58 61/94/67 62/95/68
f 52/82/60 37/6/6 59/96/69
f 56/84/61 55/81/59 62/95/68 63/97/70
f 53/85/62 52/82/60 59/96/69 60/98/71
f 57/87/63 56/84/61 63/97/70 64/92/65
f 54/80/58 53/89/62 60/99/71 61/94/67
f 64/100/65 63/101/70 70/8/8 1/12/12
f 61/102/67 60/98/71 67/10/10 68/103/2
f 8/104/15 15/105/22 22/106/24 29/107/33 36/108/41 44/109/50 51/110/57 58/111/64 65/112/66 71/113/14
f 65/114/66 64/100/65 1/12/12 71/16/14
f 62/115/68 61/116/67 68/2/2 69/1/1
f 59/96/69 37/6/6 66/5/5
f 63/101/70 62/115/68 69/1/1 70/8/8
f 60/98/71 59/96/69 66/5/5 67/10/10
f 84/117/72 74/118/73 77/119/74
f 73/120/75 72/121/76 75/122/77 76/123/78
f 74/118/73 73/120/75 76/123/78 77/119/74
f 72/121/76 85/124/79 75/122/77
f 76/125/78 75/126/77 78/127/80 79/128/81
f 77/129/74 76/125/78 79/128/81 80/130/82
f 75/126/77 85/131/79 78/127/80
f 84/132/72 77/129/74 80/130/82
f 84/133/72 80/134/82 83/135/83
f 79/136/81 78/137/80 81/138/84 82/139/85
f 80/134/82 79/136/81 82/139/85 83/135/83
f 78/137/80 85/140/79 81/138/84
f 84/133/72 83/135/83 88/141/86
f 82/139/85 81/138/84 86/142/87 87/143/88
f 83/135/83 82/139/85 87/143/88 88/141/86
f 81/138/84 85/140/79 86/142/87
f 84/144/72 88/145/86 91/146/89
f 87/147/88 86/148/87 89/149/90 90/150/91
f 88/145/86 87/147/88 90/150/91 91/146/89
f 86/148/87 85/151/79 89/149/90
f 84/117/72 91/152/89 74/118/73
f 90/153/91 89/154/90 72/121/76 73/120/75
f 91/152/89 90/153/91 73/120/75 74/118/73
f 89/154/90 85/124/79 72/121/76
